<svg width="122" height="80" viewBox="0 0 122 80" fill="none" xmlns="http://www.w3.org/2000/svg">
<path d="M9.21922 40.5479C9.8543 40.0165 10.3891 39.5516 10.9573 39.0867C14.0993 36.4631 17.2413 33.8063 20.3498 31.1828C22.5893 29.3231 24.7954 27.4301 27.0349 25.5372C27.3023 25.3047 27.5697 25.2383 27.9039 25.2383C32.55 25.2383 37.1961 25.2383 41.8422 25.2383C42.2433 25.2383 42.4439 25.3711 42.611 25.7364C43.9814 28.8581 45.4187 31.9798 46.7891 35.1347C47.9924 37.8247 49.1623 40.5147 50.3656 43.2378C50.3991 43.3375 50.4325 43.4703 50.5996 43.5367C50.7667 43.4371 50.8002 43.271 50.867 43.105C52.9394 38.9538 55.0117 34.8026 57.0507 30.6514C57.8195 29.0906 58.5548 27.5297 59.3236 25.9689C59.3904 25.8028 59.4573 25.6036 59.6913 25.5372C59.9587 25.4707 60.1926 25.5372 60.3263 25.8361C60.5603 26.3342 60.7943 26.7991 60.9948 27.2973C62.6661 30.9171 64.3374 34.5702 65.9752 38.19C66.7774 39.9169 67.5796 41.677 68.3484 43.4039C68.3818 43.5035 68.4152 43.6031 68.5155 43.6696C68.6492 43.6364 68.6492 43.5035 68.7161 43.4039C71.1227 37.5258 73.663 31.6809 76.103 25.8028C76.337 25.2715 76.337 25.2715 76.9052 25.2715C81.1168 25.2715 85.295 25.2715 89.5065 25.2715C89.9745 25.2715 90.2085 25.4043 90.409 25.8028C93.5844 32.1791 96.7932 38.5221 100.002 44.8983C100.102 45.0644 100.136 45.2636 100.303 45.3965C100.47 45.3633 100.537 45.164 100.604 45.0312C101.64 43.0054 102.676 40.9796 103.712 38.9538C105.751 35.0019 107.79 31.0167 109.829 27.0648C110.063 26.5999 110.33 26.1017 110.564 25.6368C110.698 25.3711 110.865 25.2383 111.166 25.2715C113.172 25.2715 115.211 25.2715 117.216 25.2715C117.283 25.2715 117.383 25.2715 117.45 25.2715C117.617 25.2715 117.651 25.3711 117.617 25.504C117.584 25.6036 117.517 25.7364 117.483 25.8361C114.876 30.7179 112.403 35.6661 109.862 40.6143C108.358 43.5367 106.854 46.4592 105.35 49.4148C103.879 52.2708 102.409 55.0936 100.938 57.9497C100.871 58.0493 100.838 58.1821 100.771 58.2817C100.57 58.5806 100.169 58.6138 99.9352 58.2817C99.8684 58.2153 99.8349 58.1157 99.8015 58.0493C98.2974 55.1268 96.7932 52.2044 95.2891 49.282C93.083 44.9647 90.8436 40.6475 88.6375 36.3303C87.2671 33.6735 85.8966 31.0167 84.5262 28.3268C84.1251 27.5629 83.7574 26.7991 83.3563 26.0685C83.2895 25.9689 83.2895 25.8361 83.1223 25.7696C82.9886 25.9025 82.9552 26.0685 82.8884 26.2346C79.8132 33.4078 76.7381 40.5811 73.663 47.7543C72.2257 51.1417 70.755 54.5291 69.2843 57.8832C69.2509 57.9829 69.184 58.0825 69.1506 58.1821C69.0837 58.3814 68.9166 58.481 68.6826 58.481C68.4487 58.481 68.315 58.3814 68.2481 58.1821C67.7802 57.1526 67.3456 56.1231 66.8777 55.0936C65.5073 52.0052 64.1034 48.8835 62.733 45.795C61.8639 43.8356 60.9948 41.843 60.0924 39.8837C60.0255 39.7176 59.9587 39.5516 59.8584 39.4187C59.6913 39.452 59.6913 39.5848 59.6578 39.6844C57.9866 43.1714 56.3153 46.6584 54.6441 50.1454C53.4073 52.7358 52.1706 55.3593 50.9004 57.9829C50.8336 58.0825 50.8002 58.2153 50.7333 58.315C50.5328 58.6471 50.1317 58.6138 49.9311 58.2817C49.8643 58.1821 49.8308 58.0493 49.7974 57.9497C47.8587 53.4664 45.9201 49.0163 43.9814 44.533C43.0789 42.474 42.1765 40.3818 41.274 38.3228C39.5024 34.2049 37.6975 30.1201 35.926 26.0021C35.926 25.9689 35.9259 25.9025 35.8591 25.8693C35.7254 25.6368 35.692 25.6036 35.4914 25.7696C35.1237 26.0685 34.7895 26.3674 34.4218 26.6663C31.5473 29.157 28.6393 31.6477 25.7647 34.1384C23.4249 36.1642 21.0517 38.19 18.712 40.2158C18.478 40.415 18.2106 40.6475 17.9766 40.88C17.8095 41.0128 17.8095 41.1456 17.9766 41.2785C18.0769 41.3781 18.1772 41.4777 18.2774 41.5442C20.6506 43.8024 23.0238 46.0607 25.4304 48.3521C27.6031 50.4111 29.7423 52.4701 31.9149 54.5291C33.1517 55.6914 34.3884 56.8537 35.5917 58.0161C35.692 58.1157 35.9259 58.2153 35.8591 58.3814C35.7922 58.5806 35.5583 58.5142 35.3911 58.5142C32.8843 58.5142 30.3774 58.5142 27.9039 58.5142C27.5362 58.5142 27.2688 58.3814 27.0349 58.1489C25.163 56.3224 23.2578 54.5291 21.386 52.7358C19.7816 51.2081 18.1772 49.6805 16.5728 48.1196C14.1996 45.8614 11.8264 43.5699 9.4532 41.3117C9.38634 41.2453 9.31949 41.1789 9.21922 41.1124C9.08552 41.2785 9.15237 41.4777 9.15237 41.6438C9.15237 45.6953 9.15237 49.7801 9.15237 53.8317C9.15237 55.1933 9.15237 56.5881 9.15237 57.9497C9.15237 58.4478 9.11894 58.481 8.61757 58.481C6.77918 58.481 4.90737 58.481 3.06898 58.481C2.5676 58.481 2.53418 58.4478 2.53418 57.9497C2.53418 56.5881 2.53418 55.2265 2.53418 53.8649C2.53418 44.5994 2.53418 35.334 2.53418 26.0685C2.53418 25.1719 2.53418 25.2715 3.33638 25.2715C5.04107 25.2715 6.74575 25.2715 8.45044 25.2715C8.58414 25.2715 8.68442 25.2715 8.81812 25.2715C9.11894 25.2715 9.15237 25.3379 9.15237 25.6368C9.15237 25.7696 9.15237 25.9357 9.15237 26.1017C9.15237 30.7511 9.15237 35.3672 9.15237 40.0165C9.15237 40.1826 9.15237 40.3818 9.21922 40.6143V40.5479Z" fill="white"/>
<path d="M116.065 20.2661C115.095 20.2661 114.126 20.2661 113.19 20.2661C112.923 20.2661 112.689 20.2329 112.421 20.1665C106.338 18.4396 100.221 16.7459 94.1379 15.019C87.9542 13.2921 81.7706 11.532 75.5869 9.80511C70.5063 8.3771 65.4256 6.94909 60.345 5.52108C60.0442 5.45466 59.8102 5.42145 59.5094 5.52108C55.9329 6.55058 52.3564 7.58007 48.8133 8.60957C45.6045 9.53943 42.3957 10.4361 39.1869 11.366C35.109 12.5283 31.0311 13.7238 26.9532 14.8862C22.5411 16.1481 18.129 17.4101 13.7169 18.672C12.0122 19.1702 10.2741 19.6683 8.56938 20.1665C8.30198 20.2329 8.03458 20.2661 7.76718 20.2661C5.86194 20.2661 3.99013 20.2661 2.0849 20.2661C1.65037 20.2661 1.41639 20.1333 1.24927 19.7348C0.915015 19.0374 0.547338 18.3732 0.17966 17.709C0.11281 17.6093 0.0793848 17.5097 0.0125344 17.3769C-0.0208907 17.244 0.0125344 17.1776 0.11281 17.1112C0.213086 17.078 0.313361 17.0448 0.413637 17.0116C3.35505 16.1813 6.29647 15.3179 9.20446 14.4876C13.2823 13.3253 17.3602 12.1298 21.4381 10.9674C24.8475 9.97116 28.2568 9.00808 31.6662 8.045C35.7441 6.88267 39.8554 5.68713 43.9332 4.5248C47.3426 3.52851 50.752 2.56543 54.1613 1.60236C55.8995 1.10422 57.671 0.606074 59.4091 0.0747214C59.7434 -0.0249071 60.0108 -0.0249071 60.345 0.0747214C62.6179 0.738912 64.9243 1.36989 67.1972 2.00087C71.8099 3.29604 76.4225 4.59122 81.0018 5.88639C84.7454 6.94909 88.489 8.0118 92.2661 9.04129C97.0459 10.3697 101.792 11.6981 106.572 13.0596C110.316 14.1223 114.059 15.185 117.836 16.2145C118.739 16.4802 119.641 16.7127 120.544 16.9784C120.644 16.9784 120.778 17.0448 120.878 17.078C121.079 17.1444 121.145 17.2772 121.045 17.4433C120.878 17.7422 120.744 18.0411 120.611 18.34C120.343 18.8381 120.076 19.3362 119.808 19.8676C119.675 20.1997 119.441 20.2993 119.106 20.2993C118.104 20.2993 117.101 20.2993 116.065 20.2993V20.2661Z" fill="#B29143"/>
<path d="M14.0688 20.2105C14.0688 20.2105 14.3028 20.0777 14.4031 20.0445C17.2108 19.2474 20.052 18.4172 22.8597 17.6202C27.1047 16.3914 31.3497 15.1959 35.6281 13.9671C39.4386 12.8712 43.2825 11.8085 47.0929 10.7126C51.1374 9.55027 55.1818 8.38794 59.2263 7.22561C59.6608 7.09277 60.0619 7.09277 60.4964 7.22561C65.5771 8.68682 70.6911 10.1148 75.7718 11.5428C80.7521 12.9376 85.699 14.3324 90.6794 15.7604C95.7266 17.1885 100.74 18.6165 105.788 20.0445C105.921 20.0777 106.055 20.1109 106.189 20.2105C106.122 20.3102 105.988 20.2769 105.888 20.2769C103.147 20.2769 100.406 20.2769 97.6653 20.2769C97.3979 20.2769 97.1305 20.2105 96.8631 20.1441C89.3424 18.0187 81.8551 15.8933 74.3345 13.7679C69.6884 12.4395 65.0088 11.1443 60.3627 9.81595C60.0619 9.71632 59.7611 9.71632 59.4268 9.81595C53.4437 11.5428 47.494 13.2365 41.5109 14.9302C35.461 16.6571 29.3776 18.384 23.3276 20.1441C22.9934 20.2437 22.6591 20.2769 22.2914 20.2769C19.7177 20.2769 17.1105 20.2769 14.5368 20.2769C14.4031 20.2769 14.236 20.2769 14.0688 20.2437V20.2105Z" fill="#B29143"/>
<path d="M60.3598 79.5476C41.4077 79.5476 22.4556 79.5476 3.50351 79.5476C3.33638 79.5476 3.20268 79.5476 3.03556 79.5476C2.56761 79.5476 2.53418 79.5144 2.53418 79.0163C2.53418 78.817 2.53418 78.6178 2.53418 78.4185C2.53418 78.2193 2.63446 78.0864 2.86843 78.0864C3.00213 78.0864 3.10241 78.0864 3.23611 78.0864C41.274 78.0864 79.3453 78.0864 117.383 78.0864C117.851 78.0864 118.085 78.3078 118.085 78.7506C118.085 79.1934 117.829 79.4591 117.316 79.5476C98.3308 79.5476 79.3453 79.5476 60.3932 79.5476H60.3598Z" fill="#B29143"/>
<path d="M60.2929 62.4585C79.245 62.4585 98.2305 62.4585 117.183 62.4585C117.35 62.4585 117.55 62.4585 117.717 62.4585C117.951 62.4585 118.052 62.5913 118.052 62.7906C118.052 63.0563 118.052 63.2887 118.052 63.5544C118.052 63.7869 117.918 63.8865 117.717 63.8865C117.517 63.8865 117.283 63.8865 117.082 63.8865C85.1278 63.8865 53.2068 63.8865 21.2523 63.8865C15.2692 63.8865 9.28607 63.8865 3.33638 63.8865C2.80158 63.8865 2.53418 63.6098 2.53418 63.0563C2.53418 63.0563 2.53418 62.8902 2.53418 62.8238C2.53418 62.4917 2.60103 62.4253 2.93528 62.4253C3.10241 62.4253 3.30296 62.4253 3.47008 62.4253C22.3887 62.4253 41.3408 62.4253 60.2595 62.4253L60.2929 62.4585Z" fill="#B29143"/>
<path d="M37.8765 71.0835C37.8765 70.3529 37.8765 69.5891 37.8765 68.8585C37.8765 68.4268 37.9433 68.3604 38.3778 68.3604C39.0463 68.3604 39.7149 68.3604 40.4168 68.3604C40.7176 68.3604 41.0184 68.4268 41.3193 68.4932C42.322 68.8253 42.6228 69.9212 41.9543 70.7182C41.7538 70.9507 41.7538 70.9507 42.0212 71.15C42.4891 71.482 42.6897 71.947 42.6228 72.5115C42.556 73.0761 42.2552 73.4414 41.7204 73.6407C41.453 73.7403 41.1521 73.8067 40.8513 73.8067C40.0491 73.8067 39.2135 73.8067 38.4113 73.8067C37.9767 73.8067 37.9433 73.7403 37.9433 73.3418C37.9433 72.578 37.9433 71.8141 37.9433 71.0503L37.8765 71.0835ZM40.0491 72.7108C40.2831 72.7108 40.5171 72.7108 40.7845 72.6776C41.1187 72.6112 41.3193 72.4451 41.3193 72.1794C41.3193 71.9138 41.1521 71.7145 40.8179 71.6481C40.3499 71.5485 39.882 71.5817 39.414 71.6149C39.3137 71.6149 39.2135 71.6813 39.18 71.7809C39.1466 72.0466 39.1466 72.2791 39.18 72.5448C39.18 72.6776 39.3472 72.7108 39.4474 72.7108C39.648 72.7108 39.8485 72.7108 40.0491 72.7108ZM39.9823 69.4895C39.8151 69.4895 39.6146 69.4895 39.4474 69.4895C39.2469 69.4895 39.1466 69.6555 39.18 69.8216C39.18 70.054 39.0463 70.3197 39.3472 70.519C39.3472 70.519 39.3472 70.519 39.3806 70.519C39.8151 70.519 40.2497 70.5854 40.6842 70.4525C40.9182 70.3861 41.0184 70.2201 41.0519 69.9876C41.0519 69.7552 40.8847 69.5891 40.6508 69.5227C40.4502 69.4895 40.2497 69.4895 40.0157 69.4895H39.9823Z" fill="#B29143"/>
<path d="M76.2324 71.1333C76.2324 70.4027 76.2324 69.6721 76.2324 68.9415C76.2324 68.4434 76.2993 68.377 76.7672 68.377C77.536 68.377 78.3048 68.3105 79.0736 68.4434C80.0763 68.6426 80.8785 69.174 81.1793 70.2035C81.781 72.196 80.4774 73.7237 78.7059 73.8565C78.0374 73.8897 77.3355 73.8565 76.667 73.8565C76.2659 73.8565 76.2324 73.7901 76.2324 73.4248C76.2324 72.661 76.2324 71.8972 76.2324 71.1333ZM77.5026 71.1333C77.5026 71.5319 77.5026 71.9304 77.5026 72.3289C77.5026 72.6942 77.5694 72.7274 77.9371 72.7606C78.2379 72.7606 78.5053 72.7606 78.7727 72.6942C79.5415 72.5281 80.0095 71.8972 79.976 71.1001C79.9426 70.3031 79.3744 69.6721 78.6056 69.6057C78.3716 69.6057 78.1377 69.6057 77.8703 69.6057C77.536 69.6057 77.5026 69.6721 77.4692 70.0042C77.4692 70.4027 77.4692 70.768 77.4692 71.1666L77.5026 71.1333Z" fill="#B29143"/>
<path d="M11.1567 71.0835C11.1567 70.3529 11.1567 69.5891 11.1567 68.8585C11.1567 68.4268 11.2236 68.3604 11.6581 68.3604C12.7277 68.3604 13.7973 68.3604 14.8669 68.3604C15.3015 68.3604 15.3349 68.4268 15.3349 68.8253C15.3349 68.8253 15.3349 68.8917 15.3349 68.9249C15.3349 69.4895 15.3349 69.5227 14.7332 69.5227C14.1316 69.5227 13.4965 69.5227 12.8948 69.5227C12.7277 69.5227 12.5272 69.4895 12.4937 69.6887C12.4269 69.9212 12.3935 70.1537 12.5272 70.3861C12.594 70.519 12.7611 70.4858 12.8948 70.4858C13.3962 70.4858 13.931 70.4858 14.4324 70.4858C14.5661 70.4858 14.6664 70.4858 14.8001 70.4858C14.9338 70.4858 15.0341 70.5854 15.0341 70.7182C15.0341 70.7514 15.0341 70.8179 15.0341 70.8511C15.1009 71.5485 15.0341 71.6481 14.3321 71.6481C13.8308 71.6481 13.3294 71.6481 12.828 71.6481C12.4937 71.6481 12.4603 71.7145 12.4269 72.0466C12.4269 72.0466 12.4269 72.0466 12.4269 72.0798C12.4269 72.6444 12.4269 72.6776 13.0286 72.6776C13.6302 72.6776 14.2653 72.6776 14.8669 72.6776C15.3683 72.6776 15.4017 72.7108 15.4017 73.2089C15.4017 73.2754 15.4017 73.3418 15.4017 73.375C15.4017 73.6739 15.3349 73.7403 15.0341 73.7403C13.8642 73.7403 12.7277 73.7403 11.5578 73.7403C11.2236 73.7403 11.1567 73.6739 11.1567 73.3418C11.1567 72.578 11.1567 71.7809 11.1567 71.0171V71.0835Z" fill="#B29143"/>
<path d="M62.061 71.0835C62.061 70.3197 62.061 69.5891 62.061 68.8253C62.061 68.3936 62.1278 68.3604 62.5289 68.3604C63.3311 68.3604 63.3311 68.3604 63.3311 69.1242C63.3311 69.4563 63.3311 69.8216 63.3311 70.1537C63.3311 70.4526 63.398 70.4858 63.6654 70.519C64.1334 70.519 64.6013 70.519 65.0693 70.519C65.4035 70.519 65.4369 70.4526 65.4369 70.1537C65.4369 69.7219 65.4369 69.2902 65.4369 68.8585C65.4369 68.4268 65.5038 68.3936 65.9049 68.3936C66.6737 68.3936 66.7071 68.3936 66.7071 69.1574C66.7071 70.4858 66.7071 71.8141 66.7071 73.1425C66.7071 73.2754 66.7071 73.4082 66.7071 73.541C66.7071 73.7403 66.6068 73.8399 66.4063 73.8399C66.2057 73.8399 65.9717 73.8399 65.7712 73.8399C65.5372 73.8399 65.4369 73.7403 65.4369 73.5078C65.4369 73.1425 65.4369 72.744 65.4369 72.3787C65.4369 72.2459 65.4369 72.1462 65.4369 72.0134C65.4369 71.8141 65.3367 71.6813 65.1027 71.6813C64.6013 71.6813 64.0999 71.6813 63.5986 71.6813C63.3646 71.6813 63.2643 71.7809 63.2643 72.0134C63.2643 72.4451 63.2643 72.8768 63.2643 73.3086C63.2643 73.8067 63.2309 73.8399 62.7629 73.8399C62.2504 73.8399 61.9941 73.5853 61.9941 73.0761C61.9941 72.4119 61.9941 71.7145 61.9941 71.0503L62.061 71.0835Z" fill="#B29143"/>
<path d="M105.991 73.8935C105.523 73.8935 105.055 73.8271 104.654 73.5946C103.685 73.0633 103.551 71.901 104.386 71.1703C104.587 71.0043 104.554 70.9047 104.386 70.7386C103.718 70.0412 103.985 69.0117 104.687 68.6132C105.523 68.1483 106.392 68.1151 107.228 68.6132C107.996 69.0781 108.13 70.008 107.595 70.7054C107.395 70.9711 107.361 71.0043 107.629 71.2036C108.264 71.7349 108.23 73.0301 107.395 73.5282C106.96 73.7939 106.492 73.8935 105.991 73.8935ZM105.991 72.7976C106.191 72.7976 106.425 72.7976 106.593 72.6648C106.96 72.3991 106.96 71.9674 106.593 71.7349C106.258 71.5024 105.69 71.5357 105.356 71.7349C105.022 71.9674 105.022 72.3659 105.322 72.5984C105.523 72.7644 105.757 72.7976 105.991 72.7976ZM105.991 69.3106C105.59 69.3106 105.289 69.5763 105.289 69.9416C105.289 70.2737 105.59 70.5394 105.991 70.5394C106.392 70.5394 106.726 70.2405 106.693 69.9084C106.693 69.5763 106.359 69.3106 105.957 69.3438L105.991 69.3106Z" fill="#B29143"/>
<path d="M69.5258 71.0503C69.5258 70.3197 69.5258 69.5891 69.5258 68.8585C69.5258 68.3936 69.5593 68.3604 69.9938 68.3604C71.0634 68.3604 72.133 68.3604 73.2026 68.3604C73.6037 68.3604 73.6706 68.4268 73.6706 68.8253C73.6706 68.8253 73.6706 68.8917 73.6706 68.9249C73.6706 69.4563 73.6371 69.5227 73.1023 69.5227C72.4672 69.5227 71.7987 69.5227 71.1637 69.5227C71.03 69.5227 70.8628 69.5227 70.7626 69.6555C70.6957 69.7884 70.7291 70.3197 70.796 70.3861C70.8963 70.4858 71.03 70.4858 71.1637 70.4858C71.6985 70.4858 72.2333 70.4858 72.7347 70.4858C73.236 70.4858 73.3029 70.5522 73.3029 71.0503C73.3029 71.0503 73.3029 71.1167 73.3029 71.15C73.3029 71.5817 73.2695 71.6481 72.8015 71.6481C72.3001 71.6481 71.7987 71.6481 71.2974 71.6481C70.6957 71.6481 70.6289 71.7145 70.6623 72.3123C70.6623 72.6112 70.7291 72.6776 71.03 72.6776C71.5313 72.6776 72.0661 72.6776 72.5675 72.6776C72.8015 72.6776 73.0355 72.6776 73.3029 72.6776C73.5034 72.6776 73.6037 72.7772 73.6371 72.9765C73.6371 72.9765 73.6371 73.0429 73.6371 73.0761C73.6706 73.7403 73.6371 73.8067 72.9686 73.8067C71.9659 73.8067 70.9965 73.8067 69.9938 73.8067C69.4924 73.8067 69.459 73.7735 69.459 73.2754C69.459 72.5115 69.459 71.7809 69.459 71.0171L69.5258 71.0503Z" fill="#B29143"/>
<path d="M95.3475 71.817C95.0801 71.8834 94.8795 71.9498 94.6455 71.983C94.0773 72.0495 93.5091 71.983 93.0077 71.6177C92.1052 70.9535 92.2055 69.3595 93.108 68.7285C93.9102 68.164 95.4143 68.0311 96.2165 69.0606C96.5174 69.4259 96.6511 69.8576 96.7179 70.2894C96.8182 71.186 96.7513 72.0495 96.3168 72.8465C96.0494 73.3446 95.6483 73.7099 95.1135 73.8428C94.3113 74.0752 93.5759 73.9756 92.8406 73.5439C92.5398 73.3446 92.5063 73.2782 92.7069 72.9793C92.7069 72.9461 92.7737 72.9129 92.7737 72.8797C92.9966 72.5476 93.2863 72.4701 93.6428 72.6472C93.9436 72.7801 94.2779 72.8133 94.6121 72.7469C95.0132 72.6804 95.2472 72.3816 95.3141 71.8502L95.3475 71.817ZM94.5453 70.9536C95.0801 70.9536 95.4477 70.6547 95.4477 70.2229C95.4477 69.758 95.0801 69.3927 94.5453 69.3927C94.0439 69.3927 93.7096 69.7248 93.7096 70.1897C93.7096 70.6547 94.0439 70.9536 94.5453 70.9536Z" fill="#B29143"/>
<path d="M34.8577 73.8526C34.8577 73.8526 34.6906 73.8526 34.5903 73.8526C34.3563 73.8526 34.1892 73.753 34.1224 73.5205C34.0555 73.3213 33.9552 73.122 33.8884 72.9228C33.8215 72.7235 33.6878 72.6571 33.4873 72.6571C32.9191 72.6571 32.3843 72.6571 31.816 72.6571C31.6155 72.6571 31.4818 72.7567 31.4149 72.9228C31.3481 73.122 31.2478 73.3213 31.181 73.5205C31.0807 73.753 30.947 73.8526 30.713 73.8526C30.479 73.8526 30.2785 73.8526 30.0445 73.8526C29.8774 73.8526 29.8439 73.753 29.8774 73.6202C29.8774 73.5206 29.9442 73.4541 29.9776 73.3877C30.6127 71.8601 31.2812 70.3656 31.9163 68.838C32.05 68.5059 32.2506 68.3067 32.6182 68.3731C32.6851 68.3731 32.7519 68.3731 32.7854 68.3731C33.153 68.3399 33.3202 68.4727 33.4539 68.8048C34.0889 70.3324 34.724 71.8269 35.3925 73.3545C35.5931 73.8194 35.5597 73.8859 35.0248 73.8859C34.9914 73.8859 34.9246 73.8859 34.8911 73.8859L34.8577 73.8526ZM32.6517 71.4948C32.6517 71.4948 32.8856 71.4948 33.0193 71.4948C33.1865 71.4948 33.2199 71.3951 33.1865 71.2623C33.0528 70.9302 32.9191 70.5981 32.7854 70.266C32.7185 70.1 32.5848 70.1332 32.518 70.266C32.4177 70.4653 32.3508 70.6645 32.2506 70.8638C32.0723 71.2844 32.2171 71.4948 32.6851 71.4948H32.6517Z" fill="#B29143"/>
<path d="M57.4913 73.9076C56.7559 73.9076 56.0874 73.7083 55.4858 73.3098C55.1849 73.0774 55.1515 73.0441 55.3855 72.7453C55.4523 72.6788 55.4858 72.6124 55.5526 72.546C55.7866 72.2803 55.8869 72.1143 56.288 72.4132C56.5888 72.6456 56.9565 72.7453 57.3241 72.8117C57.5247 72.8449 57.7252 72.8117 57.8924 72.7453C58.0595 72.6788 58.2266 72.5792 58.2266 72.38C58.2266 72.1807 58.1263 72.0811 57.9926 71.9814C57.8255 71.8818 57.6584 71.8486 57.4913 71.7822C57.1236 71.6826 56.7225 71.5829 56.3882 71.4501C55.6529 71.1512 55.3521 70.6863 55.3855 69.9889C55.3855 69.2583 55.82 68.6937 56.5219 68.4944C57.4244 68.2288 58.26 68.3616 59.0623 68.8597C59.3631 69.059 59.3631 69.0922 59.1625 69.3911C59.1625 69.3911 59.1625 69.3911 59.1625 69.4243C58.9174 69.8007 58.5832 69.8892 58.1598 69.69C57.8924 69.5571 57.5915 69.4575 57.2907 69.4907C57.157 69.4907 57.0567 69.4907 56.9565 69.5572C56.6222 69.7232 56.5888 70.0553 56.8896 70.2545C57.0902 70.3874 57.2907 70.4538 57.5247 70.487C57.8924 70.5866 58.26 70.6863 58.5943 70.8191C59.6305 71.2508 59.8979 72.4796 59.1959 73.3098C58.8617 73.7083 58.3937 73.8744 57.8924 73.9076C57.7587 73.9076 57.6584 73.9076 57.5247 73.9076H57.4913Z" fill="#B29143"/>
<path d="M19.811 73.9539C19.0757 73.9207 18.3737 73.7214 17.8055 73.2897C17.5381 73.0904 17.5381 73.0572 17.7387 72.8248C17.9058 72.6255 18.0061 72.3598 18.2735 72.2934C18.5409 72.227 18.6746 72.4927 18.9085 72.5923C19.3096 72.7583 19.7442 72.9244 20.2121 72.8248C20.4127 72.7583 20.5798 72.6919 20.6132 72.4595C20.6466 72.227 20.5129 72.0609 20.3124 71.9613C20.0784 71.8285 19.811 71.7621 19.5436 71.6956C19.2094 71.596 18.8751 71.5296 18.5743 71.3635C17.4378 70.799 17.605 69.2713 18.4406 68.7068C18.7748 68.5075 19.1091 68.3747 19.5102 68.3747C20.2121 68.3083 20.8472 68.4743 21.4489 68.8396C21.7497 69.0389 21.7831 69.1053 21.5826 69.4042C21.4489 69.6034 21.3486 69.8691 21.1146 69.9355C20.8806 70.0019 20.7135 69.7695 20.5129 69.6699C20.2455 69.5702 19.9447 69.4706 19.6439 69.4706C19.5102 69.4706 19.3765 69.5038 19.2428 69.5702C18.9754 69.7363 18.9754 70.0019 19.2428 70.2012C19.4768 70.3673 19.7107 70.4337 19.9781 70.5001C20.3458 70.5997 20.6801 70.6993 21.0143 70.8322C21.616 71.0979 21.9502 71.5296 21.9502 72.227C21.9502 72.9244 21.6494 73.4225 21.0143 73.7214C20.6467 73.8875 20.279 73.9539 19.8779 73.9539H19.811Z" fill="#B29143"/>
<path d="M26.2187 68.3614C26.7869 68.3614 27.3552 68.3614 27.9234 68.3614C28.4248 68.3614 28.4582 68.3946 28.4582 68.8595C28.4582 69.5237 28.4582 69.5237 27.7897 69.5237C27.5557 69.5237 27.3217 69.5237 27.1212 69.5237C26.9541 69.5237 26.8538 69.6234 26.8538 69.7894C26.8538 69.9222 26.8538 70.0219 26.8538 70.1547C26.8538 71.2174 26.8538 72.2469 26.8538 73.3096C26.8538 73.7745 26.8204 73.8077 26.3524 73.841C25.8399 73.841 25.5836 73.5864 25.5836 73.0771C25.5836 72.1141 25.5836 71.151 25.5836 70.2211C25.5836 69.7783 25.3497 69.5569 24.8817 69.5569C24.6812 69.5569 24.4806 69.5569 24.2801 69.5569C24.0461 69.5569 23.9458 69.4573 23.9458 69.2248C23.9458 68.295 23.9458 68.3614 24.7146 68.3614C25.216 68.3614 25.7508 68.3614 26.2521 68.3614H26.2187Z" fill="#B29143"/>
<path d="M45.0156 71.1167C45.0156 70.3861 45.0156 69.6223 45.0156 68.8917C45.0156 68.4268 45.0825 68.3936 45.5504 68.3604C45.5504 68.3604 45.5504 68.3604 45.5839 68.3604C46.2858 68.3604 46.2858 68.3604 46.2858 69.0578C46.2858 70.0208 46.2858 70.9839 46.2858 71.9802C46.2858 72.0798 46.2858 72.1794 46.2858 72.2791C46.2858 72.6112 46.3526 72.6776 46.6869 72.6776C47.2217 72.6776 47.7565 72.6776 48.3247 72.6776C48.9932 72.6776 49.0266 72.6776 48.9932 73.375C48.9932 73.7735 48.9264 73.8399 48.5253 73.8399C47.4891 73.8399 46.4863 73.8399 45.4502 73.8399C45.0491 73.8399 45.0156 73.7735 45.0156 73.4082C45.0156 72.6444 45.0156 71.8806 45.0156 71.1167Z" fill="#B29143"/>
<path d="M89.8095 71.0835C89.8095 71.8473 89.8095 72.578 89.8095 73.3418C89.8095 73.8067 89.776 73.8399 89.2746 73.8399C88.7844 73.8399 88.5393 73.5964 88.5393 73.1093C88.5393 72.1794 88.5393 71.2496 88.5393 70.3197C88.5393 70.1869 88.5393 70.0872 88.5393 69.9544C88.5393 69.7551 88.439 69.6887 88.2385 69.6887C88.2385 69.6887 88.1716 69.6887 88.1382 69.6887C87.9376 69.6887 87.7371 69.8548 87.6034 69.6887C87.4363 69.4895 87.4363 69.257 87.4028 69.0245C87.4028 68.8917 87.4697 68.7921 87.57 68.7589C88.1048 68.5928 88.6061 68.3604 89.1744 68.3604C89.7426 68.3604 89.8095 68.3936 89.8095 68.9581C89.8095 69.6887 89.8095 70.3861 89.8095 71.1167V71.0835Z" fill="#B29143"/>
<path d="M101.283 71.0997C101.283 71.8635 101.283 72.6273 101.283 73.3911C101.283 73.8228 101.249 73.856 100.815 73.856C100.28 73.856 100.012 73.6014 100.012 73.0922C100.012 72.1624 100.012 71.1993 100.012 70.2694C100.012 70.1366 100.012 70.037 100.012 69.9041C100.012 69.7713 99.9456 69.6716 99.7785 69.7049C99.7785 69.7049 99.7116 69.7049 99.6782 69.7049C99.4776 69.7049 99.2771 69.8709 99.11 69.7049C98.9428 69.5056 98.9094 69.2399 98.876 69.0075C98.876 68.8746 98.876 68.8082 99.0097 68.775C99.6113 68.6089 100.146 68.3433 100.781 68.3433C101.216 68.3433 101.249 68.4097 101.249 68.8082C101.249 69.572 101.249 70.3358 101.249 71.0997H101.283Z" fill="#B29143"/>
<path d="M52.6925 71.1159C52.6925 71.8465 52.6925 72.6103 52.6925 73.341C52.6925 73.7727 52.6257 73.8059 52.2246 73.8059C51.6898 73.8059 51.4224 73.5513 51.4224 73.0421C51.4224 71.7137 51.4224 70.3853 51.4224 69.0569C51.4224 68.9241 51.4224 68.7912 51.4224 68.6584C51.4224 68.4592 51.5561 68.3595 51.7566 68.3263C52.5922 68.2267 52.6925 68.3263 52.6925 69.1233C52.6925 69.7875 52.6925 70.4517 52.6925 71.0827V71.1159Z" fill="#B29143"/>
</svg>
